<?xml version="1.0" standalone="no"?><!DOCTYPE svg PUBLIC "-//W3C//DTD SVG 1.1//EN" "http://www.w3.org/Graphics/SVG/1.1/DTD/svg11.dtd"><svg t="1591684434083" class="icon" viewBox="0 0 1024 1024" version="1.1" xmlns="http://www.w3.org/2000/svg" p-id="2635" xmlns:xlink="http://www.w3.org/1999/xlink" width="200" height="200"><defs><style type="text/css"></style></defs><path d="M19.2 947.2c0 12.8 12.8 25.6 25.6 25.6h166.4c12.8 0 25.6-12.8 25.6-25.6v-896c0-12.8-12.8-25.6-25.6-25.6H44.8c-12.8 0-25.6 12.8-25.6 25.6v896z m64-755.2c12.8-6.4 38.4-12.8 51.2-12.8h6.4c12.8 0 38.4 6.4 51.2 12.8 0 0 12.8 6.4 12.8 32 0 19.2-12.8 25.6-12.8 25.6-12.8 6.4-38.4 6.4-51.2 6.4h-6.4c-19.2 0-38.4 0-51.2-6.4 0 0-12.8-6.4-12.8-32C64 198.4 83.2 192 83.2 192z m0 140.8c12.8-6.4 32-12.8 51.2-12.8h6.4c12.8 0 38.4 6.4 51.2 12.8 0 0 12.8 6.4 12.8 32 0 12.8-12.8 25.6-12.8 25.6-12.8 0-38.4 6.4-51.2 6.4h-6.4c-12.8 0-38.4-6.4-51.2-12.8 0 0-12.8-6.4-12.8-32-6.4-12.8 12.8-19.2 12.8-19.2z m0 134.4c12.8-6.4 38.4-12.8 51.2-12.8h6.4c12.8 0 38.4 6.4 51.2 12.8 0 0 12.8 6.4 12.8 32 0 19.2-12.8 25.6-12.8 25.6-12.8 6.4-38.4 12.8-51.2 12.8h-6.4c-12.8 0-38.4-6.4-51.2-12.8 0 0-12.8-6.4-12.8-32-6.4-19.2 12.8-25.6 12.8-25.6z m224 480c0 12.8 12.8 25.6 25.6 25.6h166.4c12.8 0 25.6-12.8 25.6-25.6v-896c0-12.8-12.8-25.6-25.6-25.6H332.8c-12.8 0-25.6 12.8-25.6 25.6v896zM742.4 38.4c-6.4-12.8-19.2-19.2-32-19.2l-160 51.2c-12.8 6.4-25.6 19.2-19.2 32L793.6 960c6.4 12.8 19.2 19.2 32 19.2l160-51.2c12.8-6.4 19.2-19.2 19.2-32L742.4 38.4z" p-id="2636" fill="#1296db"></path></svg>