<?xml version="1.0" standalone="no"?><!DOCTYPE svg PUBLIC "-//W3C//DTD SVG 1.1//EN" "http://www.w3.org/Graphics/SVG/1.1/DTD/svg11.dtd"><svg t="1591752088209" class="icon" viewBox="0 0 1024 1024" version="1.1" xmlns="http://www.w3.org/2000/svg" p-id="2100" xmlns:xlink="http://www.w3.org/1999/xlink" width="200" height="200"><defs><style type="text/css"></style></defs><path d="M536.55 515.91H504V558c0 7.16 7.76 12.83 17.91 12.83h16.71c22.09 0 32.84-10.15 32.84-25.67 0.02-22.08-11.03-29.25-34.91-29.25zM568.19 459.5c0-17.91-16.41-23.58-31.64-23.58h-15.22c-5.07 0-11.94 1.19-17.61 2.09v46.26h31.34c18.21 0 33.13-7.16 33.13-24.77z" fill="#515151" p-id="2101"></path><path d="M511.33 49.05c-246.87 0-447 200.13-447 447s200.13 447 447 447 447-200.13 447-447-200.13-447-447-447zM253 607.25h-15.51c-11.94 0-24.78-9.26-24.78-27.17V402.79h18.51c10.44 0 21.79 8.66 21.79 21.79z m100.88 3.58c-41.19 0-62.38-16.12-62.38-40.3v-18.2h0.89c13.73 12.23 32.24 22.08 57 22.08 30.74 0 40.59-10.44 40.59-26.86 0-14-5.37-20.3-48.65-29.55-34.6-7.46-54.33-24.77-54.33-52.53 0-34 28.65-66.26 76.71-66.26 47.75 0 61.48 20.29 61.48 37.31v18.8H424c-12.54-13.43-30.74-20-53.13-20-31.64 0-43.28 10.45-43.28 26.27 0 12.24 9.55 19.7 47.76 27.76 37.31 7.76 55.52 27.16 55.52 54.62 0.03 40.29-27.43 66.86-76.98 66.86z m188.63-2.69h-22.07c-38.21 0-57-16.71-57-48.65V411.15c9.85-3.58 37-9.26 54-9.26h24.77c39.11 0 66.86 20.6 66.86 54 0 22.68-12.23 37.31-32.53 43.28 20.59 5.67 36.12 26.86 36.12 44.77 0.01 41.22-32.83 64.2-70.14 64.2z m268.33-0.89h-16.1c-15.82 0-33.14-4.78-58.51-54l-37.31-72.53c-5.67-11.34-10.14-19.1-13.73-23.88v150.41h-16.11c-11.94 0-24.78-9-24.78-26.87V402.79h20.3c26.86 0 44.17 14.33 57.9 41.79l35.82 71.63c4.18 8.36 9 20.6 11.94 27.46V402.79h18.21c10.44 0 22.38 10.45 22.38 23.58z" fill="#515151" p-id="2102"></path></svg>