<?xml version="1.0" standalone="no"?><!DOCTYPE svg PUBLIC "-//W3C//DTD SVG 1.1//EN" "http://www.w3.org/Graphics/SVG/1.1/DTD/svg11.dtd"><svg t="1591618052228" class="icon" viewBox="0 0 1024 1024" version="1.1" xmlns="http://www.w3.org/2000/svg" p-id="3785" xmlns:xlink="http://www.w3.org/1999/xlink" width="200" height="200"><defs><style type="text/css"></style></defs><path d="M845.445908 383.3856v-31.507692c0-94.523077-31.507692-183.815877-94.523077-246.831262C687.907446 36.800985 609.138215 0 519.845415 0S351.8464 36.800985 288.831015 105.046646C220.522338 173.292308 189.014646 257.354831 189.014646 351.877908v31.507692h-5.230277C131.292554 383.3856 84.031015 430.647138 84.031015 483.138954v441.107692c0 57.785108 41.968246 99.753354 99.753354 99.753354H840.215631c52.491815 0 99.753354-47.261538 99.753354-99.753354v-441.107692c0-52.491815-42.031262-99.753354-94.523077-99.753354zM651.169477 199.569723a228.934892 228.934892 0 0 1 57.722092 152.308185v31.507692H320.338708v-31.507692a228.934892 228.934892 0 0 1 57.722092-152.308185 179.467815 179.467815 0 0 1 273.108677 0z m157.538461 320.3072v372.862031H215.292062V519.876923z" fill="#1890FF" p-id="3786"></path></svg>