<?xml version="1.0" standalone="no"?><!DOCTYPE svg PUBLIC "-//W3C//DTD SVG 1.1//EN" "http://www.w3.org/Graphics/SVG/1.1/DTD/svg11.dtd"><svg t="1591628269464" class="icon" viewBox="0 0 1024 1024" version="1.1" xmlns="http://www.w3.org/2000/svg" p-id="4528" xmlns:xlink="http://www.w3.org/1999/xlink" width="200" height="200"><defs><style type="text/css"></style></defs><path d="M400.35144042 147.80322266c34.11254883 0 67.15393067 6.67419434 98.30017091 19.85778809 30.07507325 12.68920898 57.10144043 30.89904786 80.25512695 54.13513183 23.23608398 23.23608398 41.44592286 50.26245117 54.13513184 80.25512695 13.18359375 31.06384278 19.85778809 64.18762208 19.85778808 98.3001709s-6.67419434 67.15393067-19.85778808 98.3001709c-12.68920898 30.07507325-30.89904786 57.10144043-54.13513184 80.25512695-23.23608398 23.23608398-50.26245117 41.44592286-80.25512695 54.13513184-31.06384278 13.18359375-64.18762208 19.85778809-98.30017091 19.85778808s-67.15393067-6.67419434-98.30017089-19.85778808c-30.07507325-12.68920898-57.10144043-30.89904786-80.25512695-54.13513184s-41.44592286-50.26245117-54.13513184-80.25512695C154.47741699 467.50537109 147.80322266 434.46398925 147.80322266 400.35144042s6.67419434-67.15393067 19.85778809-98.30017089c12.68920898-30.07507325 30.89904786-57.10144043 54.13513183-80.25512695 23.23608398-23.23608398 50.26245117-41.44592286 80.25512695-54.13513184C333.19750977 154.47741699 366.2388916 147.80322266 400.35144042 147.80322266m1e-8-57.67822266C229.04711914 90.125 90.125 229.04711914 90.125 400.35144042S229.04711914 710.57788086 400.35144042 710.57788086 710.57788086 571.65576172 710.57788086 400.35144042 571.65576172 90.125 400.35144042 90.125z" fill="#1296db" p-id="4529"></path><path d="M316.30603027 202.26794433c7.25097656-7.25097656 14.83154297-14.00756836 22.65930176-20.26977538-30.73425293 11.20605469-59.4909668 29.08630372-84.12780762 53.72314453-90.39001465 90.39001465-90.39001465 237.05749512 1e-8 327.44750976 27.35595703 27.35595703 59.82055664 46.38977051 94.26269531 57.1838379-11.45324708-8.32214356-22.41210938-17.71545411-32.79418945-28.09753419-107.69348145-107.69348145-107.69348145-282.29370117 0-389.98718262zM912.69885254 912.69885254c-28.17993164 28.17993164-74.32250977 28.17993164-102.58483887-1e-8L602.80200195 705.30444336c-28.17993164-28.17993164-28.17993164-74.32250977 0-102.58483887 28.17993164-28.17993164 74.32250977-28.17993164 102.58483888 1e-8l207.39440917 207.39440917c28.17993164 28.26232911 28.17993164 74.40490723-0.08239747 102.58483887z" fill="#1296db" p-id="4530"></path></svg>