<?xml version="1.0" standalone="no"?><!DOCTYPE svg PUBLIC "-//W3C//DTD SVG 1.1//EN" "http://www.w3.org/Graphics/SVG/1.1/DTD/svg11.dtd"><svg t="1591752123479" class="icon" viewBox="0 0 1024 1024" version="1.1" xmlns="http://www.w3.org/2000/svg" p-id="2769" xmlns:xlink="http://www.w3.org/1999/xlink" width="200" height="200"><defs><style type="text/css"></style></defs><path d="M787.9 250.6V98.2H270.6c-57.1 0-103.5 46.4-103.5 103.5v597.6c0 69.8 56.8 126.6 126.6 126.6h436.5c69.8 0 126.6-56.8 126.6-126.6V362.7c0.1-49-28.1-91-68.9-112.1z m-517.3-83.5h448.3v69H270.6c-19 0-34.5-15.5-34.5-34.5s15.5-34.5 34.5-34.5z m517.3 632.1c0 31.8-25.9 57.6-57.6 57.6H293.7c-31.8 0-57.6-25.9-57.6-57.6V305.1h494.2c31.8 0 57.6 25.9 57.6 57.6v436.5z" fill="#515151" p-id="2770"></path></svg>