<?xml version="1.0" standalone="no"?><!DOCTYPE svg PUBLIC "-//W3C//DTD SVG 1.1//EN" "http://www.w3.org/Graphics/SVG/1.1/DTD/svg11.dtd"><svg t="1591752598307" class="icon" viewBox="0 0 1024 1024" version="1.1" xmlns="http://www.w3.org/2000/svg" p-id="5015" xmlns:xlink="http://www.w3.org/1999/xlink" width="200" height="200"><defs><style type="text/css"></style></defs><path d="M904.476301 867.112833c-3.725858 0-781.266653 0-784.953625 0-20.658506 0-37.378306 16.720823-37.378306 37.380352 0 20.623713 16.7198 37.378306 37.378306 37.378306 3.687996 0 781.228791 0 784.953625 0 20.620643 0 37.378306-16.754592 37.378306-37.378306C941.854607 883.832633 925.096944 867.112833 904.476301 867.112833zM455.932542 754.977917l112.13287 0c20.623713 0 37.381375-16.754592 37.381375-37.378306L605.446787 119.506814c0-20.624736-16.757662-37.378306-37.381375-37.378306L455.932542 82.128509c-20.661575 0-37.381375 16.754592-37.381375 37.378306l0 598.092797C418.551166 738.223325 435.269943 754.977917 455.932542 754.977917zM511.999488 568.085366c30.955013 0 56.065923 25.115004 56.065923 56.06797s-25.110911 56.06797-56.065923 56.06797c-30.989805 0-56.066947-25.115004-56.066947-56.06797S481.009683 568.085366 511.999488 568.085366zM717.579657 754.977917l112.137986 0c20.621667 0 37.378306-16.754592 37.378306-37.378306L867.095949 231.642754c0-20.624736-16.756639-37.378306-37.378306-37.378306L717.579657 194.264449c-20.658506 0-37.376259 16.754592-37.376259 37.378306l0 485.956857C680.203398 738.223325 696.921151 754.977917 717.579657 754.977917zM773.64865 568.085366c30.956036 0 56.068993 25.115004 56.068993 56.06797s-25.112957 56.06797-56.068993 56.06797c-30.989805 0-56.068993-25.115004-56.068993-56.06797S742.658845 568.085366 773.64865 568.085366zM194.279287 754.977917l112.137986 0c20.621667 0 37.375236-16.754592 37.375236-37.378306L343.792509 306.400389c0-20.624736-16.753569-37.378306-37.375236-37.378306L194.279287 269.022083c-20.658506 0-37.378306 16.754592-37.378306 37.378306l0 411.199223C156.900981 738.223325 173.620781 754.977917 194.279287 754.977917zM250.34828 568.085366c30.955013 0 56.068993 25.115004 56.068993 56.06797s-25.113981 56.06797-56.068993 56.06797c-30.989805 0-56.068993-25.115004-56.068993-56.06797S219.358475 568.085366 250.34828 568.085366z" fill="#707070" p-id="5016"></path></svg>