<?xml version="1.0" standalone="no"?><!DOCTYPE svg PUBLIC "-//W3C//DTD SVG 1.1//EN" "http://www.w3.org/Graphics/SVG/1.1/DTD/svg11.dtd"><svg t="1591752149695" class="icon" viewBox="0 0 1024 1024" version="1.1" xmlns="http://www.w3.org/2000/svg" p-id="3669" xmlns:xlink="http://www.w3.org/1999/xlink" width="200" height="200"><defs><style type="text/css"></style></defs><path d="M249.8 832.6l52.3-21.4-48-21.4zM259.3 487.9l-1.7 266.7 20.6 21.5 104.5-150.6c-11.1-12.7-17.9-29.3-17.9-47.5 0-39.8 32.3-72.1 72-72.1 39.8 0 72 32.2 72 72.1 0 39.7-32.3 72-72 72-8.7 0-17.4-1.6-25.5-4.7l-104 149.6 24.9 14.6L580 714.3c3.5-135.5 91.8-238.4 91.8-238.4L459.9 319.8c-72 116.7-200.6 168.1-200.6 168.1zM435.1 269.2l284.6 199 52.4-72.9-287.3-205.8z" p-id="3670"></path><path d="M870.2 151.8C774.3 55.8 646.7 3 511 3S247.7 55.8 151.7 151.8 2.9 375.3 2.9 511.1c0 135.7 52.8 263.3 148.8 359.2 96 96 223.5 148.8 359.3 148.8 135.7 0 263.3-52.8 359.2-148.8S1019 646.8 1019 511.1s-52.8-263.3-148.8-359.3z m97.1 359.3c0 121.9-47.5 236.5-133.6 322.7-86.3 86.1-200.8 133.6-322.7 133.6s-236.5-47.5-322.7-133.7S54.6 632.9 54.6 511.1c0-121.9 47.5-236.5 133.7-322.7S389.1 54.7 511 54.7s236.5 47.5 322.7 133.7c86.1 86.2 133.6 200.8 133.6 322.7z" p-id="3671"></path></svg>