<?xml version="1.0" standalone="no"?><!DOCTYPE svg PUBLIC "-//W3C//DTD SVG 1.1//EN" "http://www.w3.org/Graphics/SVG/1.1/DTD/svg11.dtd"><svg t="1591692441219" class="icon" viewBox="0 0 1024 1024" version="1.1" xmlns="http://www.w3.org/2000/svg" p-id="5161" xmlns:xlink="http://www.w3.org/1999/xlink" width="200" height="200"><defs><style type="text/css"></style></defs><path d="M744.96 52.224c67.072 0 120.832 54.272 121.344 120.832v398.848c-3.072 12.8-14.848 21.504-27.648 20.48-15.36 0-30.208-11.776-30.208-20.48v-399.36c0-63.488-58.368-63.488-97.28-63.488H238.592c-39.936 0-94.208 0-94.208 63.488v677.888c-2.048 23.552 10.752 45.568 32.256 55.296 19.456 6.656 40.448 9.216 60.928 7.68h249.856c29.696 0 32.256 14.336 32.256 23.04v2.048c0.512 8.704-2.56 17.408-8.704 23.552-6.144 6.144-14.848 9.216-23.552 8.704H207.36c-66.56 0-120.32-53.76-120.32-120.32V173.056c0-32.256 12.8-62.976 35.328-85.504 22.528-22.528 53.248-35.328 85.504-35.328h537.088zM441.856 709.12c15.872 0 29.184 12.8 29.184 29.184s-12.8 29.184-29.184 29.184H365.568v-57.856h76.288z m-120.832 0v57.856H255.488c-14.848-1.024-26.624-13.824-26.624-28.672 0-14.848 11.776-27.648 26.624-28.672h65.536z m0-176.64v57.856H255.488c-14.848-1.024-26.624-13.824-26.624-28.672 0-14.848 11.776-27.648 26.624-28.672h65.536z m322.048 0c14.848 1.024 26.624 13.824 26.624 28.672 0 14.848-11.776 27.648-26.624 28.672H365.568V532.48h277.504zM321.024 355.84v57.856H255.488c-14.848-1.536-26.112-13.824-26.112-28.672 0-14.848 11.264-27.648 26.112-28.672h65.536z m392.704 0c14.848 1.536 26.112 13.824 26.112 28.672 0 14.848-11.264 27.648-26.112 28.672h-348.16V355.84h348.16z m-26.112-161.792c13.824 2.048 24.064 13.824 24.064 27.648s-10.24 25.6-24.064 27.648H356.864V194.048h330.752z m-372.224 0v54.784H253.44c-14.336-1.536-25.088-13.312-25.088-27.136 0-14.336 10.752-26.112 25.088-27.136h61.952z" p-id="5162" fill="#ffffff"></path><path d="M937.472 784.384c0 40.448-87.04 130.048-212.48 130.048-121.344 0-212.48-87.552-212.48-130.048s91.136-130.048 212.48-130.048c124.928 0.512 212.48 87.552 212.48 130.048z m-212.992-104.448c-56.832 0-103.424 46.592-103.424 105.472 0 58.88 46.592 105.472 103.424 105.472s103.424-46.592 103.424-105.472c0-58.88-46.592-105.472-103.424-105.472z m0 38.4c-36.352 0-65.024 30.72-65.024 67.072 0 36.864 28.672 67.072 65.024 67.072s65.024-30.72 65.024-67.072c0-38.912-28.16-67.072-65.024-67.072z" p-id="5163" fill="#ffffff"></path></svg>