<?xml version="1.0" standalone="no"?><!DOCTYPE svg PUBLIC "-//W3C//DTD SVG 1.1//EN" "http://www.w3.org/Graphics/SVG/1.1/DTD/svg11.dtd"><svg t="1591692425544" class="icon" viewBox="0 0 1024 1024" version="1.1" xmlns="http://www.w3.org/2000/svg" p-id="4997" xmlns:xlink="http://www.w3.org/1999/xlink" width="200" height="200"><defs><style type="text/css"></style></defs><path d="M763.992 962a59.953 59.953 0 0 1-35.646-12.419l-0.806-0.805c-11.613-9.01-61.34-49.504-61.34-49.504a58.035 58.035 0 0 0-26.5-10.758H330.58a53.393 53.393 0 0 1-43.115-8.993c-11.614-10.689-162.44-135.889-206.993-174.002l-1.713-1.713-1.713-1.713a53.427 53.427 0 0 1-2.604-56.818l0.805-0.823a77.494 77.494 0 0 1 47.346-33.077 129.105 129.105 0 0 1 97.776 24.838l0.822 0.822c38.97 28.161 96.97 67.936 116.001 80.989h139.264c-15.76-1.713-29.018-3.323-38.114-4.95a76.483 76.483 0 0 1-63.807-73.778 60.793 60.793 0 0 1 67.816-65.966h274.484a63.876 63.876 0 0 1 37.29 14.886l1.713 1.713 1.713 1.713c11.597 12.419 149.97 127.598 177.326 149.164l4.145 2.467a38.01 38.01 0 0 1 17.404 27.407 44.982 44.982 0 0 1-13.276 33.985L803.133 946.344A66.291 66.291 0 0 1 763.993 962z m-5.807-53.016a10.86 10.86 0 0 0 5.807 2.484l0.805-0.805 133.354-135.889c-38.953-29.035-156.633-127.615-178.987-149.181a11.631 11.631 0 0 0-7.468-2.467H440.792c-17.404 0-18.209 1.713-18.209 15.742a25.043 25.043 0 0 0 22.491 24.838h0.857c19.887 4.145 74.565 8.29 116.001 10.757a27.99 27.99 0 0 1 29.035 19.888 30.302 30.302 0 0 1-15.76 34.79l-58.891 38.113H319.823l-6.612-4.145c-0.857-0.754-75.37-52.194-122.853-86.265a83.42 83.42 0 0 0-57.813-17.986 26.054 26.054 0 0 0-14.902 8.993c0 0.805-0.805 1.713-0.805 3.323 48.905 41.454 190.6 159.117 201.358 168.213h2.689l3.426-0.823h318.9a99.351 99.351 0 0 1 53.993 21.567c0.531-0.052 48.494 38.918 60.981 48.853zM676.203 62.03h-377.09a22.714 22.714 0 0 0-7.28 0.806 31.227 31.227 0 0 0-24.838 36.451V368.65a35.355 35.355 0 0 0 16.565 30.645l199.696 125.988a20.23 20.23 0 0 0 21.549 0l192.005-125.8a35.39 35.39 0 0 0 16.547-30.644V98.91a36.966 36.966 0 0 0-37.12-36.88z m-15.759 295.845l-159.1 101.92a20.247 20.247 0 0 1-21.565 0l-166.482-101.92V119.432h347.198z" fill="#ffffff" p-id="4998"></path><path d="M384.487 204.565h204.681a19.476 19.476 0 0 1 20.692 18.192v2.501a19.51 19.51 0 0 1-18.191 20.71h-207.01a20.35 20.35 0 0 1-2.467-40.512 2.998 2.998 0 0 0 2.466-0.805z m40.58 82.068h122.699a20.333 20.333 0 0 1 19.082 21.532 18.843 18.843 0 0 1-18.568 18.945H425.067A20.35 20.35 0 0 1 422.6 286.6z" fill="#ffffff" p-id="4999"></path></svg>