<?xml version="1.0" standalone="no"?><!DOCTYPE svg PUBLIC "-//W3C//DTD SVG 1.1//EN" "http://www.w3.org/Graphics/SVG/1.1/DTD/svg11.dtd"><svg t="1591752162356" class="icon" viewBox="0 0 1024 1024" version="1.1" xmlns="http://www.w3.org/2000/svg" p-id="4120" xmlns:xlink="http://www.w3.org/1999/xlink" width="200" height="200"><defs><style type="text/css"></style></defs><path d="M542.72 759.808c63.488-38.912 243.712-57.344 243.712-57.344V256s-149.504 0-247.808 73.728c2.048 8.192 4.096 401.408 4.096 430.08z m331.776 8.192H612.352c-10.24 2.048-24.576 6.144-43.008 20.48-22.528 18.432-43.008 16.384-49.152 16.384-4.096 0-24.576 2.048-49.152-16.384-18.432-14.336-45.056-18.432-55.296-20.48H153.6c-32.768 0-40.96-36.864-40.96-36.864V284.672h38.912v442.368h61.44V210.944s198.656 0 296.96 83.968c98.304-83.968 315.392-83.968 315.392-83.968v520.192h40.96V284.672h40.96v446.464c6.144 0 0 36.864-32.768 36.864z m-620.544-512v444.416s184.32 20.48 247.808 57.344V331.776c-98.304-75.776-247.808-75.776-247.808-75.776z" p-id="4121"></path></svg>