<?xml version="1.0" standalone="no"?><!DOCTYPE svg PUBLIC "-//W3C//DTD SVG 1.1//EN" "http://www.w3.org/Graphics/SVG/1.1/DTD/svg11.dtd"><svg t="1591692494945" class="icon" viewBox="0 0 1038 1024" version="1.1" xmlns="http://www.w3.org/2000/svg" p-id="6053" xmlns:xlink="http://www.w3.org/1999/xlink" width="202.734375" height="200"><defs><style type="text/css"></style></defs><path d="M485.007 1020.802c26.506 0 48.021-21.273 48.021-48.554V51.756c0-26.845-21.854-48.602-48.02-48.602H338.763c-26.506 0.048-48.021 21.32-48.021 48.602V972.2c0 26.846 21.854 48.554 48.02 48.554h146.244zM339.103 51.853c0-0.388 145.468-0.097 145.468-0.097-0.436 0-0.339 920.492-0.339 920.492 0 0.387-145.468 0.097-145.468 0.097 0.387 0 0.339-920.492 0.339-920.492zM860.599 1022.4l141.3-37.844c25.634-6.881 40.85-33 33.824-59.36L797.459 36.104c-6.93-25.924-33.678-41.285-58.972-34.501L597.186 39.448c-25.634 6.88-40.85 33-33.823 59.36l238.215 889.091c7.026 25.925 33.726 41.237 59.02 34.502zM750.649 48.607c-0.387 0.097 237.925 889.189 237.925 889.189 0.097 0.387-140.477 37.748-140.477 37.748 0.387-0.097-237.925-889.189-237.925-889.189-0.145-0.339 140.477-37.748 140.477-37.748z m-556.384 972.195c26.506 0 48.02-21.321 48.02-48.603V51.756c0-26.845-21.854-48.602-48.02-48.602H48.02C21.515 3.202 0 24.474 0 51.756V972.2c0 26.846 21.854 48.554 48.021 48.554h146.244zM48.36 51.853c0-0.388 145.469-0.097 145.469-0.097-0.437 0-0.34 920.492-0.34 920.492 0 0.387-145.468 0.097-145.468 0.097 0.388 0 0.34-920.492 0.34-920.492z" p-id="6054" fill="#ffffff"></path></svg>