<?xml version="1.0" standalone="no"?><!DOCTYPE svg PUBLIC "-//W3C//DTD SVG 1.1//EN" "http://www.w3.org/Graphics/SVG/1.1/DTD/svg11.dtd"><svg t="1591757199006" class="icon" viewBox="0 0 1024 1024" version="1.1" xmlns="http://www.w3.org/2000/svg" p-id="9560" xmlns:xlink="http://www.w3.org/1999/xlink" width="200" height="200"><defs><style type="text/css"></style></defs><path d="M779.8 960H242.17a134.41 134.41 0 0 1-134.4-134.41V512a134.4 134.4 0 0 1 134.4-134.41h22.4V288c0-129.9 116.51-224 246.41-224S757.4 158.09 757.4 288v89.58h22.4A134.4 134.4 0 0 1 914.21 512v313.59A134.41 134.41 0 0 1 779.8 960zM511 108.78c-105.16 0-201.61 74-201.61 179.21v89.58H712.6V288c0-105.17-96.45-179.22-201.6-179.22zM869.41 512a89.61 89.61 0 0 0-89.61-89.61H242.17a89.61 89.61 0 0 0-89.6 89.61v313.59a89.61 89.61 0 0 0 89.6 89.61H779.8a89.61 89.61 0 0 0 89.61-89.61V512z m-336 244.18v69.46A22.4 22.4 0 0 1 511 848a22.4 22.4 0 0 1-22.4-22.4v-69.45a134.16 134.16 0 0 1-110.45-152.94c8.8-58.66 57.51-105.66 116.42-112.64A134.45 134.45 0 0 1 645.4 624c0 66.56-48.5 121.44-112.01 132.15zM511 534.4a89.6 89.6 0 1 0 89.6 89.6 89.6 89.6 0 0 0-89.6-89.6z" fill="#707070" p-id="9561"></path></svg>