<?xml version="1.0" standalone="no"?><!DOCTYPE svg PUBLIC "-//W3C//DTD SVG 1.1//EN" "http://www.w3.org/Graphics/SVG/1.1/DTD/svg11.dtd"><svg t="1591752667449" class="icon" viewBox="0 0 1024 1024" version="1.1" xmlns="http://www.w3.org/2000/svg" p-id="5823" xmlns:xlink="http://www.w3.org/1999/xlink" width="200" height="200"><defs><style type="text/css"></style></defs><path d="M923.886835-1.0e-06" p-id="5824"></path><path d="M744.093293 1023.965411l-3.204182-0.440035-2.021469-0.50825-1.801452-0.612013-1.842765-0.777266-1.993607-1.093361-1.320104-0.900246L521.545293 904.469105c-4.977772-2.72956-8.75938-7.019417-10.821201-12.175893-2.076233 5.14975-5.843429 9.439608-10.80775 12.175893l-211.410704 115.859776-1.485357 0.949245-1.388319 0.625464-0.742679 0.494799-2.791049 0.749404-3.712432 0.69464-2.254937 0.150842-2.15886-0.102803-3.740294-0.563975-2.351015-0.618739-3.285848-1.492083L51.657473 904.469105c-5.363042-2.936126-9.322393-7.69292-11.275647-13.378782L39.419129 891.090322l-0.357408-4.688579-0.069176-3.189771 0-283.063331c0-10.003582 6.201798-19.147272 15.428114-22.763626l224.445529-106.688224L278.866189 194.335822c0-9.989171 6.201798-19.133821 15.441565-22.756901L523.593664 62.57427l0 3.141732c3.396337 0.137391 6.668735 0.989598 9.762428 2.537405L737.726241 171.909427c8.786281 3.416513 14.726749 12.293107 14.726749 22.426394l0 274.593145 0.426584 2.577758c3.657668 0.041313 7.177945 0.907932 10.477244 2.571032l204.37015 103.642569c8.786281 3.416513 14.726749 12.293107 14.726749 22.426394l0 290.941681-1.402731 0c-1.938843 5.679137-5.899154 10.429205-11.247785 13.372057L758.406909 1020.32792l-1.416181 0.880069-1.416181 0.660052-0.756129 0.50921-2.969753 0.76958-3.864234 0.742679-1.746688 0.110489L744.093293 1023.965411zM771.77224 960.624442l164.027236-89.891967L935.799476 643.241291l-164.027236 89.913104L771.77224 960.624442zM302.117888 960.624442l164.012824-89.891967L466.130712 643.241291l-164.012824 89.913104L302.117888 960.624442zM721.419019 958.562621 721.419019 731.078162l-68.434994-37.517277 0 50.381084-56.664548-26.737389 0-54.692078-38.926733-21.333994 0 227.471007L721.419019 958.562621zM251.517748 958.562621 251.517748 731.078162l-68.421543-37.517277 0 50.381084-56.664548-26.737389 0-54.692078-38.926733-21.333994 0 227.471007L251.517748 958.562621zM745.646865 688.905934l160.424332-87.919498-62.852896-31.887139-162.005767 84.475122L745.646865 688.905934zM275.759045 688.905934l160.424332-87.919498-62.852896-31.887139-162.005767 84.475122L275.759045 688.905934zM151.374318 620.711133l159.599027-83.223233-28.628193-14.526908-165.649023 78.733534L151.374318 620.711133zM621.262138 620.711133l159.599027-83.223233-28.628193-14.526908-165.649023 78.733534L621.262138 620.711133zM491.651761 558.408762 491.651761 330.924303l-68.421543-37.517277 0 50.381084-56.664548-26.744114 0-54.692078-38.941144-21.333994 0 227.477733L491.651761 558.408762zM542.885051 554.118904l164.012824-89.899654L706.897876 236.734792l-164.012824 89.913104L542.885051 554.118904zM515.604825 283.073899l160.616487-90.015907-62.948973-31.935178-162.212333 86.564806L515.604825 283.073899zM402.729215 220.571686l159.736418-85.27929-38.885419-19.332701-165.690336 80.734827L402.729215 220.571686z" p-id="5825"></path></svg>