<?xml version="1.0" standalone="no"?><!DOCTYPE svg PUBLIC "-//W3C//DTD SVG 1.1//EN" "http://www.w3.org/Graphics/SVG/1.1/DTD/svg11.dtd"><svg t="1591718297341" class="icon" viewBox="0 0 1024 1024" version="1.1" xmlns="http://www.w3.org/2000/svg" p-id="24454" xmlns:xlink="http://www.w3.org/1999/xlink" width="200" height="200"><defs><style type="text/css"></style></defs><path d="M1016.775122 715.055192c-5.030321 16.960401-12.314804 32.506532-27.403962 43.033179-3.6883 2.572057-7.517485 4.990584-11.469494 7.129148-113.329434 61.301282-226.655255 122.615208-340.140024 183.625689-4.508324 2.425753-10.869829 3.493228-15.887506 2.572057-81.78923-14.984397-163.500792-30.380611-245.226804-45.713608-32.748565-6.142952-65.276771-14.158954-98.292657-17.95924-25.847001-2.974843-52.290053-0.769449-78.467592-0.861567-4.441494-0.01445-8.882987-0.001806-14.357639-0.001806 0-4.145274 0-7.358538 0-10.571803 0-80.055259 0.077667-160.11413-0.130048-240.16939-0.019868-7.363957 1.255323-10.806611 9.674111-12.368991 41.311852-7.651146 82.426825-16.349899 123.662816-24.427312 3.545609-0.695394 7.83538-0.512966 11.129924 0.843504 102.112811 42.050595 204.184079 84.198726 306.157811 126.587085 28.605098 11.890343 45.274697 39.24373 42.839913 68.614665-2.494389 30.084391-22.176763 53.576082-51.663295 61.117048-15.01149 3.840023-29.795396 2.485358-44.125941-3.514903-35.430801-14.838093-70.865214-29.670767-106.30324-44.488992-2.707523-1.1325-5.467426-2.142176-8.301385-3.245776-2.848408 14.689983-2.74726 14.821837 9.536839 19.974981 32.656448 13.69295 65.256903 27.517754 97.951281 41.118586 51.883654 21.582516 105.766793-6.840153 116.313309-61.976808 1.920011-10.040774 0.428074-20.892541-0.574378-31.267465-0.509354-5.261517 0.334151-7.990715 5.122438-10.573609 72.971266-39.335847 145.73843-79.052807 218.767495-118.276669 40.869328-21.952791 88.179634-0.693588 99.446831 44.07898 0.433493 1.721327 1.154174 3.366793 1.741196 5.048383C1016.775122 700.607243 1016.775122 707.830314 1016.775122 715.055192z" p-id="24455" fill="#1296db"></path><path d="M655.576385 57.672587c18.334934 14.410019 37.123229 28.285397 54.930746 43.320368 74.703431 63.078602 149.069098 126.561798 223.667769 189.766835 20.086967 17.0182 21.064131 42.680966 1.454007 55.889849-11.810869 7.956397-24.196116 8.046708-36.559688 0.959103-2.28848-1.313122-4.410788-2.911626-8.225523-5.454783 0 4.838862 0 8.270679 0 11.704302 0 81.260007 0.003612 162.521821-0.003612 243.781828-0.003612 21.52833-5.928012 27.590002-27.086067 27.591809-144.159794 0.01445-288.3232 0.012644-432.484801 0.001806-21.190567-0.001806-27.367837-6.184495-27.37145-27.407574-0.018062-81.258201-0.007225-162.520015-0.007225-243.780022 0-3.462523 0-6.925045 0-10.340606-7.374794 3.121147-13.391311 6.93227-19.895507 8.167724-15.587674 2.960394-29.29688-4.555285-35.685478-18.204886-6.587282-14.072256-3.498647-29.054846 9.040128-39.921063 21.145411-18.318678 42.608717-36.272499 63.932944-54.385268 66.03719-56.092145 132.027418-112.240284 198.182012-168.19335 6.076122-5.140501 13.212495-9.031097 19.855771-13.50149C644.739068 57.672587 650.157727 57.672587 655.576385 57.672587zM647.993876 134.939044c-1.388983 0.628564-2.024772 0.764031-2.460071 1.134306-65.137692 55.29199-130.311509 110.537019-195.203556 166.114392-3.02903 2.593731-4.949041 8.155081-4.963491 12.341898-0.28177 86.375221-0.218553 172.754054-0.187847 259.131081 0 3.151853 0.3486 6.3019 0.532835 9.423047 43.195738 0 85.345676 0 127.495613 0-1.54793-1.407045-3.256614-1.636435-4.911111-2.060896-29.195731-7.483167-36.680705-27.021043-19.555938-51.907135 12.406921-18.027876 28.792944-32.129032 46.011635-45.4788 35.627679 22.827002 71.183109 27.234177 107.045596 1.018708 6.760679 6.103216 13.479816 11.664565 19.604706 17.816549 9.30203 9.347186 19.570388 18.156118 26.96505 28.89048 13.987364 20.316357 6.657725 38.905967-16.880927 46.07124-7.165273 2.178301-14.623153 3.395693-23.822228 5.478264 48.439194 0 94.884321 0 141.829771 0 0-4.372857 0-7.965428 0-11.561611 0-84.87064-0.130048-169.744893 0.207715-254.613727 0.032512-8.165918-2.801446-13.221526-8.742102-18.201274-31.587166-26.477371-62.903399-53.276249-94.328005-79.94508C713.845025 190.767481 681.04408 162.966151 647.993876 134.939044z" p-id="24456" fill="#1296db"></path><path d="M7.224878 590.442305c2.333636-4.755776 4.260872-9.769841 7.078574-14.21856 9.30203-14.693595 23.244238-21.31339 40.264244-21.503043 21.349514-0.238421 42.709865-0.388337 64.055767 0.023481 29.080133 0.558122 47.494541 19.698629 47.498153 48.72277 0.010837 102.250084-0.482261 204.509199 0.323313 306.75567 0.220359 27.911509-9.618119 46.784697-36.415191 55.868174-28.895899 0-57.791798 0-86.687697 0C24.999884 960.348826 13.044517 948.227287 7.224878 929.968215 7.224878 816.792309 7.224878 703.61821 7.224878 590.442305z" p-id="24457" fill="#1296db"></path><path d="M717.522488 416.337199c-0.693588 20.417505-9.724686 41.882617-31.684702 56.160782-30.832166 20.049036-74.022486 9.404985-92.715051-22.33571-20.776942-35.277272-9.890858-82.90728 24.013688-103.109844 20.991883-12.50807 42.724315-12.894601 64.207489-1.040382C704.114921 358.579719 717.692272 383.431492 717.522488 416.337199z" p-id="24458" fill="#1296db"></path></svg>