<?xml version="1.0" standalone="no"?><!DOCTYPE svg PUBLIC "-//W3C//DTD SVG 1.1//EN" "http://www.w3.org/Graphics/SVG/1.1/DTD/svg11.dtd"><svg t="1591842841513" class="icon" viewBox="0 0 1024 1024" version="1.1" xmlns="http://www.w3.org/2000/svg" p-id="2731" xmlns:xlink="http://www.w3.org/1999/xlink" width="200" height="200"><defs><style type="text/css"></style></defs><path d="M276.3 383.3c-65.2 0-118 52.8-118 118v246.5c0 65.2 52.8 118 118 118h471.5c65.2 0 118-52.8 118-118V501.3c0-65.1-52.8-118-118-118m70.7 364.4c0 39.1-31.7 70.8-70.8 70.8H276.3c-39.1 0-70.8-31.7-70.8-70.8V501.3c0-39.1 31.7-70.8 70.8-70.8h471.5c39.1 0 70.8 31.7 70.8 70.8v246.4h-0.1zM746.9 320.2H277.1c-17.7 0-32.1-14.4-32.1-32.1 0-17.7 14.4-32.1 32.1-32.1h469.7c17.7 0 32.1 14.4 32.1 32.1 0.1 17.7-14.3 32.1-32 32.1zM672 192.2H354c-17.7 0-32.1-14.4-32.1-32.1 0-17.7 14.4-32.1 32.1-32.1h318c17.7 0 32.1 14.4 32.1 32.1 0 17.7-14.4 32.1-32.1 32.1z" p-id="2732"></path></svg>