<?xml version="1.0" standalone="no"?><!DOCTYPE svg PUBLIC "-//W3C//DTD SVG 1.1//EN" "http://www.w3.org/Graphics/SVG/1.1/DTD/svg11.dtd"><svg t="1592622222253" class="icon" viewBox="0 0 1024 1024" version="1.1" xmlns="http://www.w3.org/2000/svg" p-id="2741" xmlns:xlink="http://www.w3.org/1999/xlink" width="200" height="200"><defs><style type="text/css"></style></defs><path d="M957.7 575.3l-8-14.2c-32.4-55.3-74.9-104.1-125.3-143.7l95.3-57.4c9.1-5.2 12.3-16.9 7.1-26.1-0.1-0.1-0.2-0.3-0.3-0.4-5.9-9.2-18-12.2-27.5-6.8l-0.7 0.4-107.8 65.1c-5.1-3.4-10-6.9-15.3-10.2-42.6-27.6-89-49-137.6-63.5l47-139.4c3.3-10.1-2.2-21-12.3-24.3-0.2-0.1-0.3-0.1-0.5-0.1-10.3-3.5-21.6 2-25.3 12.2v0.3L598.9 309c-57.1-11.8-116.1-11.8-173.3 0l-47.8-141.8c-3.6-10.3-14.7-15.9-25.1-12.5-5 1.5-9.2 4.9-11.6 9.5-2.4 4.6-2.9 9.9-1.3 14.8l46.8 139.4c-48.7 14.4-95 35.8-137.5 63.5-5.2 3.3-10.2 6.8-15.3 10.2l-108-65.1c-9.3-6-21.6-3.5-27.8 5.6-2.9 4.3-3.9 9.6-2.8 14.7 1.1 5 4.2 9.4 8.6 12.2l0.7 0.4 95.3 57.4c-42.7 34-79.8 74.3-110.1 119.7-5.2 8.1-10.2 16.3-15 24.6l-2.8 5-5.1 8.5c-3.8 6.2-3.8 14.1 0 20.3l8.3 14c42.9 72.6 102.6 133.9 174 178.9 158.3 109.4 367.8 109.4 526.1 0 71.4-45.1 131.2-106.4 174.4-179l8-14.2c3.3-6.1 3.3-13.6 0-19.7m-45.4 14.1c-118.1 220.9-393 304.3-613.9 186.2a453.883 453.883 0 0 1-186.2-186.2v-0.5l-2.3-4 2.3-4v-0.4c4.1-7.2 8.3-14.2 12.9-21.1 129.6-213.8 408-282.1 621.8-152.4 69.6 42.2 126.5 102.4 164.8 174.2v0.4l1.9 3.2h0.6l0.3 0.6-2.5 4.2m-400-119c63.2 2.4 112.4 55.5 110 118.6-2.4 63.2-55.5 112.4-118.6 110-61.5-2.3-110.1-52.8-110.1-114.3 1.3-64.4 54.6-115.6 119.1-114.4l-0.4 0.1z m0-41.1c-85.8 3-152.9 75-149.9 160.8 3 85.8 75 152.9 160.8 149.9 83.6-2.9 149.9-71.6 150-155.3-1.7-87.3-73.6-156.8-160.9-155.4" fill="#515151" p-id="2742"></path></svg>