<?xml version="1.0" standalone="no"?><!DOCTYPE svg PUBLIC "-//W3C//DTD SVG 1.1//EN" "http://www.w3.org/Graphics/SVG/1.1/DTD/svg11.dtd"><svg t="1591718357919" class="icon" viewBox="0 0 1041 1024" version="1.1" xmlns="http://www.w3.org/2000/svg" p-id="24628" xmlns:xlink="http://www.w3.org/1999/xlink" width="203.3203125" height="200"><defs><style type="text/css"></style></defs><path d="M611.114293 162.266819c-242.423502 0-430.73636 188.377973-430.73636 430.931706 0 242.163042 188.312858 430.73636 430.73636 430.73636 242.488618 0 430.73636-188.573318 430.73636-430.73636 0-242.553733-188.312858-430.931705-430.73636-430.931706z m0 802.152868c-198.275467 0-371.416508-173.075925-371.416508-371.156047 0-198.601043 173.14104-371.546738 371.416508-371.546738 198.210352 0 371.416508 172.945695 371.416508 371.546738 0 198.015007-173.206155 371.156047-371.416508 371.156047z" fill="#d81e06" p-id="24629"></path><path d="M685.475732 0.065115H134.47179A133.095256 133.095256 0 0 0 0.009117 134.723134v650.955615c0 75.077706 57.822205 131.727839 134.462673 131.727839h40.696935c21.162406 0 34.315656-12.241638 34.315656-31.450592 0-19.404299-13.218364-31.450591-34.315656-31.450591h-40.696935c-35.422612 0-71.691721-34.706346-71.691721-68.826656V134.723134c0-34.901691 36.855144-71.821951 71.691721-71.821951h551.003942c34.055195 0 68.761541 36.203993 68.761542 71.821951v-14.650897c0 21.097291 12.111408 34.315656 31.385476 34.315656 19.339184 0 31.385476-13.218364 31.385476-34.315656v14.716012C817.073342 57.952435 760.618553 0.065115 685.475732 0.065115z" fill="#d81e06" p-id="24630"></path><path d="M351.109714 215.335623H133.234603c-12.892789 0-20.57637-7.292891-20.57637-19.534529 0-12.371868 7.683581-19.664759 20.57637-19.664759h217.875111c12.892789 0 20.511255 7.227776 20.511256 19.664759a18.883378 18.883378 0 0 1-5.209208 14.129976c-3.516215 3.58133-8.725423 5.404553-15.302048 5.404553z" fill="#d81e06" p-id="24631"></path><path d="M371.62097 194.889482a27.34834 27.34834 0 0 1-27.283226 27.348341H139.941458a27.34834 27.34834 0 1 1 0-54.696681h204.331171a27.34834 27.34834 0 0 1 27.348341 27.34834zM224.786428 329.091695a27.34834 27.34834 0 0 1-27.34834 27.283226H141.960026a27.34834 27.34834 0 1 1 0-54.631566h55.543177c15.106702 0 27.283225 12.176523 27.283225 27.34834zM313.86388 511.609309c35.162152 3.255755 60.752385 4.753402 76.705583 4.753402 15.953199 0 41.543431-1.497647 76.705583-4.753402-3.255755 35.162152-4.818517 110.239858-4.818517 225.363348 22.334478 19.208953 36.724914 31.190131 43.171308 36.008648a165.392344 165.392344 0 0 0 57.561745 26.371614c12.762559 3.19064 25.590233 5.599898 38.352792 7.16266s45.580567 2.409259 98.323795 2.409259 89.533257-0.846496 110.304972-2.409259c20.771716-1.562762 50.333969-4.037136 88.686761-7.16266l-19.143838 76.770698c-127.886049 0-207.00089-0.846496-237.40964-2.409259s-53.524609-3.58133-69.477808-5.990588a261.958031 261.958031 0 0 1-50.333969-13.15325 196.191784 196.191784 0 0 1-47.924711-25.199542 544.362203 544.362203 0 0 0-33.599389-22.855399c-8.009157-4.753402-13.609055-7.162661-16.799695-7.16266-3.19064 0-8.790538 2.409259-16.799695 7.16266a124.434948 124.434948 0 0 0-23.962355 19.208954c-8.009157 8.009157-21.553097 23.115859-40.696935 45.515452a1441.843571 1441.843571 0 0 1-33.59939-81.458985c25.525118-15.953199 52.743228-33.59939 81.524101-52.808343v-158.229684c-16.018314 0-41.608546 1.562762-76.705583 4.753402V511.609309zM337.826235 358.198143l57.49663-52.808343L486.418884 391.732418l-52.743228 57.561745L337.826235 358.198143z m249.325702 136.676587c25.590233-33.59939 49.552588-77.486964 71.887067-131.85807l71.887066 4.818517c-9.571919 38.352792-25.590233 75.924202-47.924711 112.649117s-45.515452 69.477807-69.542923 98.323795c-23.962355 28.715757-51.961847 59.124507-83.933358 91.030904a845.259061 845.259061 0 0 0-57.431515-52.678113c51.11535-47.989826 89.468142-88.751876 115.058374-122.28615zM505.627837 315.026835c35.162152 3.255755 99.105176 4.818517 191.829073 4.818517 92.658782 0 156.601806-1.562762 191.763958-4.818517v76.770698c-35.162152-3.19064-99.105176-4.818517-191.763958-4.818517-92.723897 0-156.666921 1.627877-191.829073 4.818517V315.026835z m210.972911 304.543304c0 71.887066 1.562762 125.47679 4.818517 160.638942H639.895165c3.19064-35.162152 4.818517-140.648607 4.818517-316.459367l76.705583 4.753402c-3.255755 28.780872-4.818517 79.049727-4.818517 151.067023z m62.380262-141.495104l124.695409 163.0482-57.561745 57.561745a2358.468778 2358.468778 0 0 0-129.448811-177.373521l62.315147-43.236424z" fill="#d81e06" p-id="24632"></path></svg>