<?xml version="1.0" standalone="no"?><!DOCTYPE svg PUBLIC "-//W3C//DTD SVG 1.1//EN" "http://www.w3.org/Graphics/SVG/1.1/DTD/svg11.dtd"><svg t="1591718250247" class="icon" viewBox="0 0 1024 1024" version="1.1" xmlns="http://www.w3.org/2000/svg" p-id="22883" xmlns:xlink="http://www.w3.org/1999/xlink" width="200" height="200"><defs><style type="text/css"></style></defs><path d="M1021.568 643.584c-1.024 3.456-1.92 7.04-3.072 10.624-5.632 17.792-18.304 32.512-34.944 40.832-83.072 44.288-165.888 88.832-248.832 133.12-32.768 17.664-64.384 34.432-97.28 51.84-4.48 1.92-9.344 2.688-14.08 2.304-72.448-13.312-143.104-26.496-215.552-39.936l-129.024-23.936c-3.328-0.512-6.656-0.64-9.856-0.64h-86.912c-0.256-2.688-0.384-4.864-0.384-7.04 0-82.688 0-165.376-0.128-248.192 0-5.376 1.664-6.912 6.656-7.808 42.752-8.32 85.376-17.152 128-25.472 3.84-0.768 7.68-0.384 11.264 1.152 103.168 42.112 206.208 84.352 309.248 126.72 29.952 11.52 47.872 42.368 42.752 73.984-3.968 29.824-28.416 53.248-59.776 57.6-12.928 1.536-25.984-0.512-37.888-5.888l-108.672-45.184c-2.048-0.896-4.096-1.536-6.144-2.304-0.384 0.768-0.768 1.152-0.768 1.408-0.64 13.952-0.64 13.952 12.416 19.328 33.152 13.824 66.304 27.776 99.584 41.472 21.76 9.344 46.336 9.088 67.84-0.768 21.504-9.728 38.016-28.032 45.312-50.56 5.376-16 5.504-30.208 0.768-49.536 1.408-0.768 2.816-1.92 4.352-2.688 73.984-39.808 148.096-79.232 221.952-119.424 42.88-23.296 94.976 1.408 102.4 48.512 0.128 0.64 0.64 1.152 0.896 1.664v18.816zM1.28 522.624c3.584-11.648 8.832-22.272 19.328-29.312 7.424-5.248 16.256-8.192 25.472-8.192 23.552 0 47.36-0.128 71.04 0 25.088 0.256 44.8 20.352 44.8 45.952v318.592c1.024 22.272-14.208 41.856-36.096 46.336-0.768 0.128-1.408 0.768-2.176 1.024H39.552c-6.144-2.688-12.544-4.608-18.304-8.064C10.24 882.304 5.12 871.168 1.28 859.52V522.624z m524.288-343.936" fill="#0E90FE" p-id="22884"></path><path d="M842.496 556.288c-10.624 10.624-27.904 10.624-38.528 0l-122.752-122.496-122.496 122.752c-10.624 10.624-27.904 10.624-38.528 0s-10.624-27.904 0-38.528l122.496-122.752-122.752-122.496c-10.624-10.624-10.624-27.904 0-38.528s27.776-10.624 38.4 0l122.752 122.496 122.496-122.752c10.624-10.624 27.776-10.624 38.528 0 10.624 10.624 10.624 27.904 0 38.528l-122.496 122.752 122.752 122.496c10.752 10.624 10.752 27.904 0.128 38.528z m0 0" fill="#0E90FE" p-id="22885"></path></svg>