<?xml version="1.0" standalone="no"?><!DOCTYPE svg PUBLIC "-//W3C//DTD SVG 1.1//EN" "http://www.w3.org/Graphics/SVG/1.1/DTD/svg11.dtd"><svg t="1591703767582" class="icon" viewBox="0 0 1024 1024" version="1.1" xmlns="http://www.w3.org/2000/svg" p-id="9286" xmlns:xlink="http://www.w3.org/1999/xlink" width="200" height="200"><defs><style type="text/css"></style></defs><path d="M703.138248 591.56001c19.081591-41.942251 29.989011-88.354304 29.989012-137.353274 0-183.702905-149.488663-333.191568-333.191568-333.191568S66.741054 270.50383 66.741054 454.206736s149.492756 333.195661 333.195661 333.195661c83.35443 0 159.471015-30.999015 217.96729-81.785701l258.710227 197.368136 80.644714-117.564579L703.138248 591.56001z m-82.582857-49.134047l-58.120722 84.729753c-42.60433 40.044018-99.532901 65.048505-162.498977 65.048506-131.269719 0-237.997486-106.726743-237.997486-237.997486s106.726743-237.993392 237.997486-237.993393c131.266649 0 237.993392 106.723673 237.993392 237.993393 0.001023 31.218002-6.407943 60.881602-17.373693 88.219227z" fill="#ffffff" p-id="9287"></path></svg>