<?xml version="1.0" standalone="no"?><!DOCTYPE svg PUBLIC "-//W3C//DTD SVG 1.1//EN" "http://www.w3.org/Graphics/SVG/1.1/DTD/svg11.dtd"><svg t="1591757217897" class="icon" viewBox="0 0 1024 1024" version="1.1" xmlns="http://www.w3.org/2000/svg" p-id="10408" xmlns:xlink="http://www.w3.org/1999/xlink" width="200" height="200"><defs><style type="text/css"></style></defs><path d="M796.672 354.304h-171.52c-15.36 0-28.16 12.8-28.16 28.16s12.8 28.16 28.16 28.16h171.52c15.36 0 28.16-12.8 28.16-28.16s-12.8-28.16-28.16-28.16z m0 133.632h-171.52c-15.36 0-28.16 12.8-28.16 28.16s12.8 28.16 28.16 28.16h171.52c15.36 0 28.16-12.8 28.16-28.16s-12.8-28.16-28.16-28.16z" p-id="10409"></path><path d="M871.424 156.16H153.088c-47.616 0-86.528 38.912-86.528 86.528v526.848c0 47.616 38.912 86.528 86.528 86.528h718.336c47.616 0 86.528-38.912 86.528-86.528V242.688c0-47.616-38.912-86.528-86.528-86.528z m19.968 613.376c0 11.264-8.704 19.968-19.968 19.968H153.088c-11.264 0-19.968-8.704-19.968-19.968V242.688c0-10.752 8.704-19.968 19.968-19.968h718.336c11.264 0 19.968 8.704 19.968 19.968v526.848z" p-id="10410"></path><path d="M484.352 521.728c26.112-24.064 41.984-58.368 41.984-96.256 0-72.704-58.88-131.584-131.584-131.584-72.192-0.512-131.072 58.88-131.072 131.072 0 37.888 16.384 72.192 41.984 96.256-65.024 32.768-110.08 100.352-110.08 178.176 0 15.36 12.8 28.16 28.16 28.16s28.16-12.8 28.16-28.16c0-78.848 64-142.848 142.848-142.848s142.848 64 142.848 142.848c0 15.36 12.8 28.16 28.16 28.16s28.16-12.8 28.16-28.16c0.512-77.824-44.032-144.896-109.568-177.664zM320 424.96c0-41.472 33.792-75.264 75.264-75.264s75.264 33.792 75.264 75.264-33.792 75.264-75.264 75.264S320 466.432 320 424.96z" p-id="10411"></path></svg>