<?xml version="1.0" standalone="no"?><!DOCTYPE svg PUBLIC "-//W3C//DTD SVG 1.1//EN" "http://www.w3.org/Graphics/SVG/1.1/DTD/svg11.dtd"><svg t="1591692342323" class="icon" viewBox="0 0 1025 1024" version="1.1" xmlns="http://www.w3.org/2000/svg" p-id="3431" xmlns:xlink="http://www.w3.org/1999/xlink" width="200.1953125" height="200"><defs><style type="text/css"></style></defs><path d="M 512.887 126.286 a 64.2857 64.2857 0 0 1 26.5178 5.78571 l 355.5 169.232 A 16.0714 16.0714 0 0 1 898.601 303.072 a 16.0714 16.0714 0 0 1 -3.05357 1.76786 L 539.405 474.072 a 64.2857 64.2857 0 0 1 -53.0357 0 L 130.87 304.839 A 16.0714 16.0714 0 0 1 127.172 303.072 a 16.0714 16.0714 0 0 1 3.05357 -1.76786 L 486.37 132.072 A 64.2857 64.2857 0 0 1 512.887 126.286 m 0 -64.2857 a 126.322 126.322 0 0 0 -54.1607 12.0536 L 103.227 243.125 a 64.2857 64.2857 0 0 0 0 119.892 l 355.5 169.072 a 127.767 127.767 0 0 0 108.322 0 l 355.5 -169.072 a 64.2857 64.2857 0 0 0 0 -119.892 L 567.048 74.054 A 126.322 126.322 0 0 0 512.887 62 Z" p-id="3432" fill="#ffffff"></path><path d="M 512.887 741.822 a 155.25 155.25 0 0 1 -69.5892 -16.0714 L 80.727 545.589 a 32.1428 32.1428 0 1 1 28.6071 -57.5357 l 362.571 180 a 92.8925 92.8925 0 0 0 81.9642 0 l 362.571 -180 a 32.1428 32.1428 0 0 1 28.6071 57.5357 l -362.571 180 A 155.25 155.25 0 0 1 512.887 741.822 Z" p-id="3433" fill="#ffffff"></path><path d="M 512.887 962 a 157.339 157.339 0 0 1 -69.5892 -16.0714 L 80.727 765.767 a 32.1428 32.1428 0 1 1 28.6071 -57.5357 l 362.571 180 a 92.8925 92.8925 0 0 0 81.9642 0 l 362.571 -180 a 32.1428 32.1428 0 0 1 28.6071 57.5357 L 582.476 945.925 A 157.339 157.339 0 0 1 512.887 962 Z" p-id="3434" fill="#ffffff"></path></svg>