<?xml version="1.0" standalone="no"?><!DOCTYPE svg PUBLIC "-//W3C//DTD SVG 1.1//EN" "http://www.w3.org/Graphics/SVG/1.1/DTD/svg11.dtd"><svg t="1591768660977" class="icon" viewBox="0 0 1028 1024" version="1.1" xmlns="http://www.w3.org/2000/svg" p-id="15705" xmlns:xlink="http://www.w3.org/1999/xlink" width="200.78125" height="200"><defs><style type="text/css"></style></defs><path d="M956.397498 579.958304c2.134816-14.943711 2.846421-29.175817 2.846421-44.119527 0 14.943711-1.423211 29.887422-2.846421 44.119527zM985.573315 569.99583l18.501737-42.696316-18.501737 42.696316zM985.573315 570.707436v-0.711606z" fill="#555555" p-id="15706"></path><path d="M985.573315 570.707436l-8.539264 19.924948-20.636553-10.67408c-23.482974 207.077137-212.769979 369.323141-441.90688 369.323141-7.827658 0-14.943711 0-22.771369-0.711605-83.257818-4.269632-160.111188-29.175817-224.867268-69.737317 0 0-0.711605 0-0.711606-0.711606l-12.808895-8.539263c-1.423211-0.711605-2.846421-2.134816-4.269631-2.846421l-8.539264-6.404448c-2.846421-2.134816-5.692842-4.269632-7.827658-5.692842-1.423211-1.423211-2.846421-2.134816-4.269632-3.558026-4.269632-2.846421-7.827658-6.404448-11.385684-9.250869l-0.711605-0.711605c-83.257818-71.160528-138.051425-170.785268-144.455873-282.507297h-64.044475c12.808895 256.177901 234.829743 461.120222 506.66296 461.120222 267.563586 0 486.026407-197.826268 505.951356-449.022932h-34.868659z" fill="#555555" p-id="15707"></path><path d="M491.719249 948.56984c-82.546213-4.269632-160.111188-29.175817-224.867268-69.737317 64.756081 40.561501 141.609451 66.179291 224.867268 69.737317zM7.827658 542.243224v-5.692842 21.348159h1.423211c-0.711605-4.981237-0.711605-9.962474-1.423211-15.655317zM70.448923 108.875608h-0.711605l0.711605 0.711605z" fill="#555555" p-id="15708"></path><path d="M69.737318 108.875608h0.711605v0.711605l885.948575 470.371091c1.423211-14.232106 5.692842-27.041001 5.692843-41.984711l-2.846422-34.868659-360.072272-191.421821-71.160528 38.426685-27.041001-64.75608 24.19458-12.808895-163.669215-86.815845-42.696317 27.752606-32.022238-61.198054 4.981237-3.558026L62.621265 27.041001c-12.09729-7.116053-27.041001-5.692842-38.426685 2.134816L13.5205 39.13829c-4.269632 3.558026-6.404448 8.539263-6.404447 14.232106V113.856845h62.621265v-4.981237z" fill="#555555" p-id="15709"></path><path d="M70.448923 109.587213l-0.711605-0.711605v4.981237h0.711605zM959.243919 502.393329L599.171647 311.683113l360.072272 191.421821zM525.164698 272.544823l-163.669215-86.815845 163.669215 86.815845zM959.243919 569.99583v-34.157053c0 14.943711-0.711605 29.175817-2.846421 44.119527l20.636553 10.67408 8.539264-19.924948-26.329396-0.711606zM8.539263 558.610146h61.198055V113.856845H7.116053v429.097985c0.711605 4.981237 1.423211 9.962474 1.42321 15.655316zM70.448923 557.186935v0zM70.448923 558.610146V113.856845h-0.711605v421.981932c0 7.116053 0 14.232106 0.711605 21.348158v1.423211z" fill="#555555" p-id="15710"></path><path d="M69.737318 535.838777v22.771369h0.711605v-1.423211c-0.711605-7.116053-0.711605-14.232106-0.711605-21.348158zM8.539263 558.610146c0-5.692842-0.711605-10.674079-1.42321-15.655316 0.711605 4.981237 0.711605 9.962474 1.42321 15.655316zM1021.865184 537.973593c0 11.385685-0.711605 22.059764-1.42321 32.733843l1.42321-32.733843zM599.883252 311.683113L959.243919 120.972898 599.171647 311.683113zM699.507992 180.036136l-173.631689 92.508687h0.711605l173.631689-91.797082zM985.573315 569.99583l34.157053 0.711606v-0.711606h-34.157053z" fill="#555555" p-id="15711"></path><path d="M1021.153579 64.044475c-0.711605-8.539263-5.692842-16.366921-12.808895-21.348158l-3.558027-2.846421c-11.385685-7.827658-25.61779-9.250869-37.71508-2.846421l-200.672689 107.452397 14.232106 9.962474 1.42321-2.846421 0.711606 0.711605-32.022238 61.198054-50.523975-33.445448h-0.711605l0.711605 0.711605-177.90132 93.220292 73.295344 39.849896 362.918693-192.845031v-7.116053h62.621265l0.711605-38.426685-0.711605-11.385685z" fill="#555555" p-id="15712"></path><path d="M525.876303 273.256428l-0.711605-0.711605-24.19458 12.808895 27.041001 64.044475 71.160528-37.71508-73.295344-38.426685zM525.876303 273.256428l-0.711605-0.711605z" fill="#555555" p-id="15713"></path><path d="M500.970118 285.353718l27.041001 64.75608 71.160528-38.426685-71.160528 37.71508zM959.243919 113.856845v389.248089l44.831133 23.482974-0.711605 0.711606v0.711605l-17.078527 41.984711h34.868659v0.711606c0.711605-10.674079 1.423211-22.059764 1.42321-32.733843V113.856845h-63.33287z" fill="#555555" p-id="15714"></path><path d="M959.243919 535.838777v34.157053h26.329396l18.501737-42.696316-44.831133-24.19458zM985.573315 569.99583v0.711606-0.711606zM959.243919 569.99583v0.711606h26.329396v-0.711606z" fill="#555555" p-id="15715"></path><path d="M1004.075052 526.587908l-44.831133-23.482974 46.254344 24.906185zM510.932592 86.104239c7.116053-4.981237 15.655316-7.116053 24.19458-7.116053 8.539263 0 16.366921 2.134816 23.482974 7.116053l93.931897 62.621265 48.389159 32.022237 68.314107-37.715079L590.632384 24.906185C556.47533 2.134816 513.067408 2.134816 479.62196 24.906185L291.758165 149.437109l69.737318 36.291869 149.437109-99.624739z" fill="#555555" p-id="15716"></path><path d="M535.127172 78.988186c8.539263 0 16.366921 2.134816 22.771369 7.116053l94.643502 62.621265-93.931897-62.621265c-7.116053-4.981237-15.655316-7.116053-23.482974-7.116053zM361.495483 185.728978L291.758165 148.725504l-4.981237 3.558026 32.022238 61.198054zM782.054204 151.571925l-12.808895-8.539263-69.025712 37.003474 50.523975 33.445448z" fill="#555555" p-id="15717"></path><path d="M782.76581 152.28353l-0.711606-0.711605-31.310632 61.909659z" fill="#555555" p-id="15718"></path></svg>