<?xml version="1.0" standalone="no"?><!DOCTYPE svg PUBLIC "-//W3C//DTD SVG 1.1//EN" "http://www.w3.org/Graphics/SVG/1.1/DTD/svg11.dtd"><svg t="1591781397449" class="icon" viewBox="0 0 1024 1024" version="1.1" xmlns="http://www.w3.org/2000/svg" p-id="19611" xmlns:xlink="http://www.w3.org/1999/xlink" width="200" height="200"><defs><style type="text/css"></style></defs><path d="M918.528 0H185.344c-17.92 0.512-31.744 14.848-31.232 32.768 0.512 17.408 14.336 31.232 31.232 31.232h721.408c29.696 0 53.248 24.064 53.248 53.248v591.36c0 17.408 14.336 31.744 31.744 31.744 17.92 0 31.744-14.336 31.744-31.744V106.496c1.536-58.88-46.08-106.496-104.96-106.496z" fill="#515151" p-id="19612"></path><path d="M481.792 312.832c-1.536-11.776-9.728-21.504-20.48-25.6-3.584-1.536-7.68-2.048-11.264-2.048-15.872 0-29.696 11.264-31.744 27.136l-151.04 415.232c-6.144 16.384 2.56 34.816 18.944 40.96 16.384 6.144 34.816-2.56 40.96-18.944l48.64-133.632h148.48l48.64 133.632c6.144 16.384 24.576 25.088 40.96 18.944 16.384-6.144 25.088-24.576 18.944-40.96l-151.04-414.72zM399.36 551.424l50.688-139.776 50.688 139.776H399.36z" fill="#515151" p-id="19613"></path><path d="M790.528 142.336H106.496C47.616 142.336 0 189.952 0 248.832V803.84c0 58.88 47.616 106.496 106.496 106.496h325.632l97.792 97.792c20.992 20.992 54.784 20.992 75.264 0l98.304-98.304h86.016c58.88 0 106.496-47.616 106.496-106.496V248.832c1.024-58.88-46.592-106.496-105.472-106.496z m42.496 651.264c0 29.696-24.064 53.248-53.248 53.248h-102.912L614.4 910.848l-26.624 26.624c-10.24 10.24-27.136 10.24-37.888 0l-26.624-26.112-62.976-64h-343.04c-29.696 0-53.248-24.064-53.248-53.248V259.584c0-29.696 24.064-53.248 53.248-53.248h662.016c29.696 0 53.248 24.064 53.248 53.248V793.6h0.512z" fill="#515151" p-id="19614"></path></svg>