<?xml version="1.0" standalone="no"?><!DOCTYPE svg PUBLIC "-//W3C//DTD SVG 1.1//EN" "http://www.w3.org/Graphics/SVG/1.1/DTD/svg11.dtd"><svg t="1592622279655" class="icon" viewBox="0 0 1024 1024" version="1.1" xmlns="http://www.w3.org/2000/svg" p-id="3913" xmlns:xlink="http://www.w3.org/1999/xlink" width="200" height="200"><defs><style type="text/css"></style></defs><path d="M925.4 320.6c5.5-16.6-3.5-34.5-20-40-16.6-5.5-34.5 3.5-40 20C816.9 446.4 672 548.3 513 548.3c-159 0-303.9-101.8-352.4-247.6-5.5-16.6-23.4-25.5-40-20s-25.5 23.4-20 40c13.9 41.8 34.8 81.2 62 117.2 9 11.9 18.7 23.3 28.9 34.2L101 562.6c-11.7 11.7-11.7 30.8 0 42.4 11.7 11.7 30.8 11.7 42.4 0l92.1-92.1c7.2 5.8 14.6 11.5 22.2 16.9 24.7 17.5 51 32.4 78.5 44.5L278.7 674c-8.2 14.3-3.3 32.7 11 41 14.3 8.3 32.7 3.3 41-11l63-109.2c27.4 7.8 55.4 12.9 83.7 15.2v106.5c0 16.5 13.5 30 30 30s30-13.5 30-30V610.8c28.7-1.6 57.2-6.1 85.2-13.3L684.1 704c8.3 14.3 26.7 19.2 41 11 14.3-8.3 19.2-26.7 11-41l-55.4-96c30.8-12.7 60.2-28.9 87.5-48.3 5-3.5 9.9-7.2 14.7-10.9l88.4 88.4c11.7 11.7 30.8 11.7 42.4 0 11.7-11.7 11.7-30.8 0-42.4l-85.9-85.9c12.7-13 24.6-26.7 35.5-41.1 27.3-36 48.2-75.4 62.1-117.2z" p-id="3914" fill="#515151"></path></svg>